[b]Frankenstein[/b] (1931)

[b]PLOT[/b]: Dr. Henry Frankenstein (Colin Clive) wants to build a man in his own image, using the body of a dead man. He and his assistant Fritz (Dwight Frye) dig up a freshly buried coffin and steal the body. When they realize the head and the brains of the body are severely damaged, they decide to steal a brain from Dr. Frankenstein's former teacher Dr. Waldman (Edward van Sloan). When Fritz accidentally drops the glass jar with the label "good brain" on it, on the floor, he decides to take the glass jar with the label "bad brain". Using some kind of mysterious ray that Dr. Frankenstein discovered, the body is brought to life during a thunderstorm, and the monster of Frankenstein (Boris Karloff) is born.


Format                           : AVI
Format/Info                      : Audio Video Interleave
File size                        : 700 MiB
Duration                         : 1h 7mn
Overall bit rate                 : 1 458 Kbps
Writing application              : VirtualDubMod 1.5.4.1 (build 2178/release)
Writing library                  : VirtualDubMod build 2178/release

Video
ID                               : 0
Format                           : MPEG-4 Visual
Format profile                   : Advanced Simple@L5
Format settings, BVOP            : Yes
Format settings, QPel            : No
Format settings, GMC             : No warppoints
Format settings, Matrix          : Custom
Codec ID                         : XVID
Codec ID/Hint                    : XviD
Duration                         : 1h 7mn
Bit rate                         : 1 323 Kbps
Width                            : 592 pixels
Height                           : 448 pixels
Display aspect ratio             : 4:3
Frame rate                       : 25.000 fps
Resolution                       : 8 bits
Colorimetry                      : 4:2:0
Scan type                        : Progressive
Bits/(Pixel*Frame)               : 0.199
Stream size                      : 635 MiB (91%)
Writing library                  : XviD 1.2.1 (UTC 2008-12-04)

Audio
ID                               : 1
Format                           : MPEG Audio
Format version                   : Version 1
Format profile                   : Layer 3
Mode                             : Joint stereo
Format_Settings_ModeExtension    : MS Stereo
Codec ID                         : 55
Codec ID/Hint                    : MP3
Duration                         : 1h 7mn
Bit rate mode                    : Constant
Bit rate                         : 128 Kbps
Channel(s)                       : 2 channels
Sampling rate                    : 48.0 KHz
Stream size                      : 61.5 MiB (9%)
Alignment                        : Aligned on interleaves
Interleave, duration             : 80 ms (2.00 video frames)
Interleave, preload duration     : 504 ms
Writing library                  : LAME3.98r
Encoding settings                : -m j -V 4 -q 2 -lowpass 17 -b 128
Language                         : English

[u][i][b]Please don't expect to get the movie in a few minutes, I only have limited bandwidth. Just hang in there, you'll get it in the end.[/b][/i][/u]

[color=Red][b]REMEMBER, LEAVE A COMMENT! I took the time and effort to do this for you, please take the time to comment THX![/b] [/color] 8)